<svg xmlns="http://www.w3.org/2000/svg" xmlns:xlink="http://www.w3.org/1999/xlink" width="24" height="24" viewBox="0 0 24 24">
  <defs>
    <clipPath id="clip-path">
      <rect x="-1" width="15" height="17" fill="none"/>
    </clipPath>
    <clipPath id="clip-path-2">
      <rect x="2" width="15" height="15" fill="none"/>
    </clipPath>
  </defs>
  <g id="leaf04" transform="translate(-86 -83)">
    <g id="그룹_14" data-name="그룹 14" transform="translate(1)">
      <g id="그룹_11" data-name="그룹 11" transform="translate(95 86)">
        <g id="스크롤_그룹_6" data-name="스크롤 그룹 6" transform="translate(0 2)" clip-path="url(#clip-path)" style="isolation: isolate">
          <g id="leaf03-right" transform="translate(-1)">
            <g id="그룹_10" data-name="그룹 10" transform="translate(1 0)">
              <ellipse id="타원_5" data-name="타원 5" cx="3.5" cy="2.5" rx="3.5" ry="2.5" transform="translate(1 7)" fill="#1b7e54"/>
              <circle id="타원_3" data-name="타원 3" cx="3.5" cy="3.5" r="3.5" transform="translate(0 3)" fill="#1b7e54"/>
              <circle id="타원_6" data-name="타원 6" cx="2.692" cy="2.692" r="2.692" transform="translate(2.525 6.81)" fill="#219b67"/>
              <ellipse id="타원_1" data-name="타원 1" cx="3" cy="3.5" rx="3" ry="3.5" transform="translate(8 2)" fill="#1b7e54"/>
              <g id="그룹_8" data-name="그룹 8" transform="translate(8 6)">
                <circle id="타원_4" data-name="타원 4" cx="3" cy="3" r="3" fill="#1b7e54"/>
                <circle id="타원_10" data-name="타원 10" cx="2.692" cy="2.692" r="2.692" transform="translate(0.154 0.076)" fill="#219b67"/>
              </g>
              <ellipse id="타원_2" data-name="타원 2" cx="2.5" cy="3.5" rx="2.5" ry="3.5" transform="translate(6)" fill="#1b7e54"/>
              <circle id="타원_9" data-name="타원 9" cx="2.692" cy="2.692" r="2.692" transform="translate(7.967 2.669)" fill="#219b67"/>
              <g id="그룹_9" data-name="그룹 9" transform="translate(1 0)">
                <ellipse id="타원_4-2" data-name="타원 4" cx="3.5" cy="3" rx="3.5" ry="3" fill="#1b7e54"/>
                <circle id="타원_10-2" data-name="타원 10" cx="2.692" cy="2.692" r="2.692" transform="translate(1.111 0.033)" fill="#219b67"/>
              </g>
              <g id="그룹_7" data-name="그룹 7" transform="translate(2 3)">
                <line id="선_1" data-name="선 1" x1="6.948" transform="translate(1.813 13.137)" fill="none" stroke="#390f0f" stroke-width="1"/>
                <path id="다각형_1" data-name="다각형 1" d="M4.541,3.256a1,1,0,0,1,1.918,0L7.674,7.38a1,1,0,0,0,.067.168l2.366,4.684a1,1,0,0,1-1.06,1.437L5.667,13.1a1,1,0,0,0-.335,0l-3.38.574a1,1,0,0,1-1.06-1.437L3.259,7.548a1,1,0,0,0,.067-.168Z" fill="#390f0f"/>
              </g>
              <circle id="타원_8" data-name="타원 8" cx="2.692" cy="2.692" r="2.692" transform="translate(5.377 0.927)" fill="#219b67"/>
              <path id="패스_4" data-name="패스 4" d="M2.047-.086C.663-.416,0,.682,0,1.9S1.417,5.613,2.634,5.613c.65,0,2.179-.065,1.37-1.852-.223-.566.245-.995.245-1.562C4.248.983,3.432.244,2.047-.086Z" transform="translate(8.637 3.155)" fill="#2abc7e"/>
              <path id="패스_5" data-name="패스 5" d="M1.694,0a2.692,2.692,0,1,0,0,5.384c1.487,0,3.554-1.08,3.554-2.567S3.181,0,1.694,0Z" transform="translate(2.161 3.619)" fill="#219b67"/>
            </g>
          </g>
        </g>
      </g>
      <g id="그룹_12" data-name="그룹 12" transform="translate(1 3.904)">
        <g id="스크롤_그룹_5" data-name="스크롤 그룹 5" transform="translate(83 84.096)" clip-path="url(#clip-path-2)" style="isolation: isolate">
          <g id="leaf03-left" style="isolation: isolate">
            <g id="그룹_10-2" data-name="그룹 10" transform="translate(2 0)">
              <ellipse id="타원_5-2" data-name="타원 5" cx="3" cy="2.5" rx="3" ry="2.5" transform="translate(1 7)" fill="#1b7e54"/>
              <ellipse id="타원_3-2" data-name="타원 3" cx="3" cy="3" rx="3" ry="3" transform="translate(0 3)" fill="#1b7e54"/>
              <circle id="타원_6-2" data-name="타원 6" cx="2.307" cy="2.307" r="2.307" transform="translate(1.837 6.557)" fill="#219b67"/>
              <ellipse id="타원_1-2" data-name="타원 1" cx="2.5" cy="3" rx="2.5" ry="3" transform="translate(7 2)" fill="#1b7e54"/>
              <g id="그룹_8-2" data-name="그룹 8" transform="translate(6.662 5.928)">
                <ellipse id="타원_4-3" data-name="타원 4" cx="2.5" cy="2.5" rx="2.5" ry="2.5" transform="translate(0.338 0.072)" fill="#1b7e54"/>
                <circle id="타원_10-3" data-name="타원 10" cx="2.307" cy="2.307" r="2.307" transform="translate(0 0)" fill="#219b67"/>
              </g>
              <ellipse id="타원_2-2" data-name="타원 2" cx="2.5" cy="3" rx="2.5" ry="3" transform="translate(5 1)" fill="#1b7e54"/>
              <circle id="타원_9-2" data-name="타원 9" cx="2.307" cy="2.307" r="2.307" transform="translate(6.501 3.009)" fill="#219b67"/>
              <g id="그룹_9-2" data-name="그룹 9" transform="translate(1)">
                <ellipse id="타원_4-4" data-name="타원 4" cx="3" cy="3" rx="3" ry="3" fill="#1b7e54"/>
                <circle id="타원_10-4" data-name="타원 10" cx="2.307" cy="2.307" r="2.307" transform="translate(0.482 0.749)" fill="#219b67"/>
              </g>
              <g id="그룹_7-2" data-name="그룹 7" transform="translate(2 3)">
                <path id="다각형_1-2" data-name="다각형 1" d="M3.537,3.423a1,1,0,0,1,1.925,0l.814,2.893a1,1,0,0,0,.062.164l1.813,3.76a1,1,0,0,1-1.076,1.419l-2.4-.427a1,1,0,0,0-.35,0l-2.4.427A1,1,0,0,1,.849,10.239l1.813-3.76a1,1,0,0,0,.062-.164Z" transform="translate(0 0)" fill="#390f0f"/>
              </g>
              <circle id="타원_8-2" data-name="타원 8" cx="2.307" cy="2.307" r="2.307" transform="translate(4.282 1.515)" fill="#219b67"/>
              <path id="패스_4-2" data-name="패스 4" d="M1.755-.095C.568-.377,0,.564,0,1.606S1.215,4.79,2.257,4.79c.557,0,1.868-.055,1.174-1.587-.192-.485.21-.853.21-1.338C3.641.822,2.941.188,1.755-.095Z" transform="translate(7.076 3.445)" fill="#2abc7e"/>
              <path id="패스_5-2" data-name="패스 5" d="M1.309,0a2.307,2.307,0,1,0,0,4.614c1.274,0,3.046-.926,3.046-2.2S2.584,0,1.309,0Z" transform="translate(1.668 3.822)" fill="#219b67"/>
            </g>
          </g>
        </g>
      </g>
      <g id="leaf03-center" transform="translate(41 -6)">
        <rect id="layout-box" width="22" height="22" transform="translate(46 90)" fill="none"/>
        <g id="그룹_10-3" data-name="그룹 10" transform="translate(48.75 90)">
          <ellipse id="타원_5-3" data-name="타원 5" cx="4" cy="3.5" rx="4" ry="3.5" transform="translate(7.25 9)" fill="#1b7e54"/>
          <circle id="타원_3-3" data-name="타원 3" cx="4" cy="4" r="4" transform="translate(8.25 5)" fill="#1b7e54"/>
          <circle id="타원_6-3" data-name="타원 6" cx="3.339" cy="3.339" r="3.339" transform="translate(7.285 9.362)" fill="#219b67"/>
          <ellipse id="타원_1-3" data-name="타원 1" cx="3.5" cy="4" rx="3.5" ry="4" transform="translate(0.25 4)" fill="#1b7e54"/>
          <g id="그룹_8-3" data-name="그룹 8" transform="translate(0 8.25)">
            <ellipse id="타원_4-5" data-name="타원 4" cx="3.5" cy="4" rx="3.5" ry="4" transform="translate(0.25 -0.25)" fill="#1b7e54"/>
            <circle id="타원_10-5" data-name="타원 10" cx="3.339" cy="3.339" r="3.339" transform="translate(0.304 0.201)" fill="#219b67"/>
          </g>
          <ellipse id="타원_2-3" data-name="타원 2" cx="3.5" cy="4" rx="3.5" ry="4" transform="translate(3.25 1)" fill="#1b7e54"/>
          <circle id="타원_9-3" data-name="타원 9" cx="3.339" cy="3.339" r="3.339" transform="translate(0.535 4.226)" fill="#219b67"/>
          <g id="그룹_9-3" data-name="그룹 9" transform="translate(7.333 0)">
            <circle id="타원_4-6" data-name="타원 4" cx="4" cy="4" r="4" transform="translate(-0.083 0)" fill="#1b7e54"/>
            <circle id="타원_10-6" data-name="타원 10" cx="3.339" cy="3.339" r="3.339" transform="translate(0.465 0.956)" fill="#219b67"/>
          </g>
          <g id="그룹_7-3" data-name="그룹 7" transform="translate(0.917 4.583)">
            <line id="선_1-2" data-name="선 1" x2="8.618" transform="translate(2.831 16.346)" fill="none" stroke="#581616" stroke-width="1"/>
            <path id="다각형_1-3" data-name="다각형 1" d="M5.539,3.352a1,1,0,0,1,1.923,0L9.075,8.981a1,1,0,0,0,.064.166l2.994,6.089a1,1,0,0,1-1.069,1.426L6.672,15.9a1,1,0,0,0-.344,0l-4.392.766A1,1,0,0,1,.867,15.236L3.861,9.147a1,1,0,0,0,.064-.166Z" transform="translate(0.333 0.417)" fill="#581616"/>
          </g>
          <circle id="타원_8-3" data-name="타원 8" cx="3.339" cy="3.339" r="3.339" transform="translate(3.747 2.065)" fill="#219b67"/>
          <path id="패스_4-3" data-name="패스 4" d="M2.73-.072C4.447-.481,5.269.881,5.269,2.39S3.512,7,2,7C1.2,7-.7,6.916.3,4.7.581,4,0,3.466,0,2.763,0,1.254,1.013.337,2.73-.072Z" transform="translate(1.113 4.793)" fill="#2abc7e"/>
          <path id="패스_5-3" data-name="패스 5" d="M3.409,0a3.339,3.339,0,1,1,0,6.678C1.565,6.678-1,5.338-1,3.494S1.565,0,3.409,0Z" transform="translate(8.904 5.404)" fill="#219b67"/>
        </g>
      </g>
    </g>
    <rect id="layout-box-2" data-name="layout-box" width="24" height="24" transform="translate(86 83)" fill="rgba(232,232,232,0)"/>
  </g>
</svg>
