<svg xmlns="http://www.w3.org/2000/svg" width="24" height="24" viewBox="0 0 24 24">
  <g id="leaf03" transform="translate(-46 -90)">
    <rect id="layout-box" width="24" height="24" transform="translate(46 90)" fill="none"/>
    <g id="그룹_10" data-name="그룹 10" transform="translate(0 -3.362)">
      <ellipse id="타원_5" data-name="타원 5" cx="4.5" cy="4" rx="4.5" ry="4" transform="translate(57 103.362)" fill="#1b7e54"/>
      <circle id="타원_3" data-name="타원 3" cx="4.5" cy="4.5" r="4.5" transform="translate(58 98.362)" fill="#1b7e54"/>
      <circle id="타원_6" data-name="타원 6" cx="3.642" cy="3.642" r="3.642" transform="translate(56.947 103.574)" fill="#219b67"/>
      <ellipse id="타원_1" data-name="타원 1" cx="4" cy="4.5" rx="4" ry="4.5" transform="translate(49 97.362)" fill="#1b7e54"/>
      <g id="그룹_8" data-name="그룹 8" transform="translate(49 101.875)">
        <circle id="타원_4" data-name="타원 4" cx="4" cy="4" r="4" transform="translate(0 0.486)" fill="#1b7e54"/>
        <circle id="타원_10" data-name="타원 10" cx="3.642" cy="3.642" r="3.642" transform="translate(0.331 0.706)" fill="#219b67"/>
      </g>
      <ellipse id="타원_2" data-name="타원 2" cx="4" cy="4.5" rx="4" ry="4.5" transform="translate(52 94.362)" fill="#1b7e54"/>
      <circle id="타원_9" data-name="타원 9" cx="3.642" cy="3.642" r="3.642" transform="translate(49.584 97.972)" fill="#219b67"/>
      <g id="그룹_9" data-name="그룹 9" transform="translate(57.259 93.616)">
        <circle id="타원_4-2" data-name="타원 4" cx="4.5" cy="4.5" r="4.5" transform="translate(-0.259 -0.254)" fill="#1b7e54"/>
        <circle id="타원_10-2" data-name="타원 10" cx="3.642" cy="3.642" r="3.642" transform="translate(0.248 0.789)" fill="#219b67"/>
      </g>
      <g id="그룹_7" data-name="그룹 7" transform="translate(50.032 98.778)">
        <line id="선_1" data-name="선 1" x2="9.401" transform="translate(3.056 17.416)" fill="none" stroke="#581616" stroke-width="1"/>
        <path id="다각형_1" data-name="다각형 1" d="M6.036,3.488a1,1,0,0,1,1.928,0L9.777,10.05a1,1,0,0,0,.06.162l3.33,7.03a1,1,0,0,1-1.082,1.412l-4.907-.888a1,1,0,0,0-.356,0l-4.907.888A1,1,0,0,1,.833,17.241l3.33-7.03a1,1,0,0,0,.06-.162Z" transform="translate(-0.032 -0.416)" fill="#581616"/>
      </g>
      <circle id="타원_8" data-name="타원 8" cx="3.642" cy="3.642" r="3.642" transform="translate(53.088 95.615)" fill="#219b67"/>
      <path id="패스_4" data-name="패스 4" d="M2.978-.065C4.851-.511,5.748.974,5.748,2.62S3.831,7.646,2.185,7.646c-.879,0-2.949-.088-1.853-2.506C.634,4.374,0,3.794,0,3.027,0,1.381,1.1.381,2.978-.065Z" transform="translate(50.214 98.578)" fill="#2abc7e"/>
      <path id="패스_5" data-name="패스 5" d="M3.81,0a3.642,3.642,0,1,1,0,7.285C1.8,7.285-1,5.823-1,3.811S1.8,0,3.81,0Z" transform="translate(58.622 99.257)" fill="#219b67"/>
    </g>
  </g>
</svg>
